<svg width="17" height="20" viewBox="0 0 17 20" fill="none" xmlns="http://www.w3.org/2000/svg">
<path d="M7.82025 12.7586C7.85274 13.0844 8.11787 13.327 8.42698 13.327C8.44799 13.327 8.46916 13.3259 8.49049 13.3237C8.82598 13.2877 9.06986 12.9764 9.03517 12.6284L8.75359 9.80127C8.7189 9.45316 8.41892 9.20033 8.08335 9.23624C7.74786 9.27222 7.50398 9.5835 7.53867 9.93152L7.82025 12.7586Z" fill="#F93EB5"/>
<path d="M11.6422 13.3237C11.6635 13.3259 11.6847 13.327 11.7057 13.327C12.0147 13.327 12.2799 13.0844 12.3124 12.7586L12.594 9.93144C12.6287 9.58333 12.3848 9.27205 12.0493 9.23615C11.7138 9.20076 11.4137 9.45316 11.3791 9.80118L11.0975 12.6283C11.0627 12.9764 11.3066 13.2877 11.6422 13.3237Z" fill="#F93EB5"/>
<path d="M6.91338 16.0775C5.87101 16.0775 5.02301 16.9571 5.02301 18.0385C5.02301 19.1201 5.87101 20 6.91338 20C7.95575 20 8.80383 19.1201 8.80383 18.0385C8.80383 16.9571 7.95575 16.0775 6.91338 16.0775ZM6.91338 18.7328C6.54451 18.7328 6.24444 18.4213 6.24444 18.0384C6.24444 17.6557 6.54451 17.3445 6.91338 17.3445C7.28225 17.3445 7.5824 17.6557 7.5824 18.0384C7.5824 18.4213 7.28225 18.7328 6.91338 18.7328Z" fill="#F93EB5"/>
<path d="M13.2193 16.0775C12.1769 16.0775 11.3289 16.9571 11.3289 18.0385C11.3289 19.1201 12.1769 20 13.2193 20C14.2618 20 15.1099 19.1201 15.1099 18.0385C15.1099 16.9571 14.2618 16.0775 13.2193 16.0775ZM13.2193 18.7328C12.8504 18.7328 12.5503 18.4213 12.5503 18.0384C12.5503 17.6557 12.8504 17.3445 13.2193 17.3445C13.5883 17.3445 13.8885 17.6557 13.8885 18.0384C13.8885 18.4213 13.5883 18.7328 13.2193 18.7328Z" fill="#F93EB5"/>
<path d="M16.8724 7.12283C16.7567 6.96765 16.5783 6.87676 16.3892 6.87676H4.21605L3.70493 4.83752C3.6349 4.55834 3.39191 4.36347 3.11383 4.36347H0.610715C0.273438 4.36347 0 4.64712 0 4.99701C0 5.34689 0.273438 5.63055 0.610715 5.63055H2.64163L3.1482 7.65129C3.15097 7.66396 3.15414 7.67654 3.15764 7.68896L5.04272 15.2088C5.11275 15.488 5.35573 15.6829 5.63381 15.6829H14.4993C14.7774 15.6829 15.0203 15.488 15.0904 15.2088L16.9804 7.6697C17.0279 7.47998 16.988 7.27792 16.8724 7.12283ZM14.027 14.4159H6.10593L4.53363 8.14384H15.5993L14.027 14.4159Z" fill="#F93EB5"/>
<path d="M7.54079 3.31711L11.1175 3.31728L10.1837 4.28609C9.94522 4.53351 9.94522 4.93467 10.1837 5.182C10.3029 5.30567 10.4593 5.36758 10.6155 5.36758C10.7718 5.36758 10.9281 5.30575 11.0474 5.182L13.0231 3.13246C13.2616 2.88504 13.2616 2.48388 13.0231 2.23654L11.046 0.185564C10.8075 -0.0618546 10.4208 -0.0618546 10.1823 0.185564C9.94375 0.432983 9.94375 0.83414 10.1823 1.08156L11.1161 2.05028L7.54079 2.05012C7.20351 2.05012 6.93007 2.33377 6.93007 2.68366C6.93015 3.03345 7.20351 3.31711 7.54079 3.31711Z" fill="#F93EB5"/>
</svg>
