<svg width="19" height="13" viewBox="0 0 19 13" fill="none" xmlns="http://www.w3.org/2000/svg">
<path d="M14.3498 8.27271C13.0292 8.27271 11.9548 9.33302 11.9548 10.6364C11.9548 11.9397 13.0292 13 14.3498 13C15.6706 13 16.7448 11.9397 16.7448 10.6364C16.7448 9.33302 15.6704 8.27271 14.3498 8.27271ZM14.3498 11.8182C13.6894 11.8182 13.1523 11.2881 13.1523 10.6364C13.1523 9.9846 13.6894 9.45454 14.3498 9.45454C15.0102 9.45454 15.5473 9.9846 15.5473 10.6364C15.5473 11.2882 15.0102 11.8182 14.3498 11.8182Z" fill="#F93EB5"/>
<path d="M6.16702 8.27271C4.84641 8.27271 3.77206 9.33302 3.77206 10.6364C3.77206 11.9397 4.84641 13 6.16702 13C7.48763 13 8.56199 11.9397 8.56199 10.6364C8.56199 9.33302 7.48763 8.27271 6.16702 8.27271ZM6.16702 11.8182C5.50662 11.8182 4.96954 11.2881 4.96954 10.6364C4.96954 9.9846 5.50662 9.45454 6.16702 9.45454C6.82723 9.45454 7.3645 9.9846 7.3645 10.6364C7.3645 11.2882 6.82742 11.8182 6.16702 11.8182Z" fill="#F93EB5"/>
<path d="M15.9626 1.50723C15.8608 1.3077 15.6538 1.18182 15.4275 1.18182H12.2741V2.36364H15.0583L16.6886 5.564L17.7588 5.03295L15.9626 1.50723Z" fill="#F93EB5"/>
<path d="M12.5536 10.0652H8.02312V11.247H12.5536V10.0652Z" fill="#F93EB5"/>
<path d="M4.37078 10.0652H2.29518C1.96446 10.0652 1.69646 10.3297 1.69646 10.6561C1.69646 10.9825 1.9645 11.247 2.29518 11.247H4.37082C4.70154 11.247 4.96954 10.9824 4.96954 10.6561C4.96954 10.3297 4.7015 10.0652 4.37078 10.0652Z" fill="#F93EB5"/>
<path d="M18.8743 6.45272L17.6966 4.95575C17.5834 4.81156 17.4088 4.72725 17.2238 4.72725H12.8729V0.590892C12.8729 0.264499 12.6049 0 12.2742 0H2.29518C1.96446 0 1.69646 0.264535 1.69646 0.590892C1.69646 0.917249 1.9645 1.18178 2.29518 1.18178H11.6754V5.31814C11.6754 5.64454 11.9435 5.90903 12.2741 5.90903H16.9306L17.8025 7.01757V10.0651H16.146C15.8153 10.0651 15.5473 10.3296 15.5473 10.656C15.5473 10.9824 15.8153 11.2469 16.146 11.2469H18.4012C18.732 11.2469 19 10.9823 19 10.656V6.81515C19 6.68396 18.9557 6.55633 18.8743 6.45272Z" fill="#F93EB5"/>
<path d="M4.33089 7.07123H1.57667C1.24595 7.07123 0.977943 7.33576 0.977943 7.66212C0.977943 7.98851 1.24598 8.25301 1.57667 8.25301H4.33085C4.66157 8.25301 4.92957 7.98847 4.92957 7.66212C4.92961 7.33576 4.66157 7.07123 4.33089 7.07123Z" fill="#F93EB5"/>
<path d="M5.70798 4.74695H0.598723C0.268041 4.74695 0 5.01149 0 5.33788C0 5.66428 0.268041 5.92877 0.598723 5.92877H5.70798C6.0387 5.92877 6.3067 5.66424 6.3067 5.33788C6.3067 5.01152 6.0387 4.74695 5.70798 4.74695Z" fill="#F93EB5"/>
<path d="M6.68592 2.42272H1.57667C1.24595 2.42272 0.977943 2.68725 0.977943 3.01361C0.977943 3.34 1.24598 3.6045 1.57667 3.6045H6.68592C7.01664 3.6045 7.28464 3.33997 7.28464 3.01361C7.28468 2.68725 7.01664 2.42272 6.68592 2.42272Z" fill="#F93EB5"/>
</svg>
