<svg width="16" height="20" viewBox="0 0 16 20" fill="none" xmlns="http://www.w3.org/2000/svg">
<path d="M3.20882 18.0858C2.2334 17.0564 1.25802 15.9859 0.637281 14.7094C0.0165816 13.3507 -0.160779 11.786 0.149592 10.3038C0.459962 8.82146 1.16932 7.42151 2.18909 6.22745C2.10043 7.25684 2.49946 8.32737 3.25317 9.1097C2.80979 7.13331 3.51919 4.99221 4.93795 3.42758C6.35671 1.86295 8.30756 0.833534 10.347 0.133575C9.32729 1.12177 9.19428 2.6864 9.59331 4.00402C9.99234 5.3216 10.8347 6.4745 11.5885 7.66856C12.3422 8.86261 13.0516 10.0979 13.0959 11.4566C13.4949 10.7567 13.9383 10.0567 14.2043 9.27437C14.4704 8.49204 14.6034 7.66856 14.3817 6.88622C15.1798 7.79208 15.6232 8.6979 15.8448 9.85081C16.0665 11.0037 16.0222 12.1978 15.8892 13.3507C15.7118 14.6271 15.3571 15.9447 14.6034 17.0152C13.7167 18.2916 12.2979 19.1975 10.7461 19.6916C7.99719 20.1445 5.29263 19.7739 3.20882 18.0858Z" fill="#FFD15C"/>
<path d="M6.57842 19.6092C10.214 20.9268 13.8053 16.9329 11.8101 13.8448C11.8101 13.8036 11.7658 13.8036 11.7658 13.7624C11.9431 15.4506 11.4998 16.6858 10.6573 17.3858C11.1007 16.3976 10.7904 15.2447 10.2583 14.2565C9.72627 13.3095 8.97256 12.4449 8.39617 11.539C7.81978 10.592 7.37644 9.52142 7.64246 8.45089C6.57838 9.19204 5.82467 10.3038 5.5143 11.4978C5.20393 12.6919 5.38129 14.0095 5.95768 15.1212C5.29263 14.6683 4.80494 13.9271 4.76059 13.1448C4.05119 13.9271 3.60785 14.9565 3.65216 15.9859C3.6522 17.5917 5.02661 19.0328 6.57842 19.6092Z" fill="#F37121"/>
</svg>
